<svg width="41" height="41" viewBox="0 0 41 41" fill="none" xmlns="http://www.w3.org/2000/svg">
<path d="M36.6048 11.2635L31.4989 17.9533H25.5573L24.5462 22.6271H31.4551C32.9076 22.6271 33.3021 23.1562 33.1111 23.9482C33.0423 24.23 29.5549 36.4451 29.5549 36.4451H24.4147L26.8783 27.8206H19.8817L17.3303 36.6017H4.65816L7.6509 32.3098H13.1073L16.9359 17.9565H10.556L4.3952 10.9129L9.16293 7.39421V11.0037H19.9725C19.9725 11.0037 17.3334 4.40459 22.8776 4.40459C28.4217 4.40459 25.4289 11.0037 25.4289 11.0037H32.2065V7.39421L36.6079 11.2666L36.6048 11.2635ZM40.9968 38.2358V2.76109C40.9968 0 38.2358 0 38.2358 0H2.76109C2.40779e-07 0 0 2.76109 0 2.76109V38.2389C0 41 2.76109 41 2.76109 41H38.2389C41 41 41 38.2389 41 38.2389" fill="#B7D100"/>
</svg>
